<?xml version="1.0" encoding="utf-8" standalone="no"?>
<!DOCTYPE svg PUBLIC "-//W3C//DTD SVG 1.1//EN"
  "http://www.w3.org/Graphics/SVG/1.1/DTD/svg11.dtd">
<svg xmlns:xlink="http://www.w3.org/1999/xlink" width="864pt" height="432pt" viewBox="0 0 864 432" xmlns="http://www.w3.org/2000/svg" version="1.1">
 <metadata>
  <rdf:RDF xmlns:dc="http://purl.org/dc/elements/1.1/" xmlns:cc="http://creativecommons.org/ns#" xmlns:rdf="http://www.w3.org/1999/02/22-rdf-syntax-ns#">
   <cc:Work>
    <dc:type rdf:resource="http://purl.org/dc/dcmitype/StillImage"/>
    <dc:date>2022-12-10T15:23:07.430816</dc:date>
    <dc:format>image/svg+xml</dc:format>
    <dc:creator>
     <cc:Agent>
      <dc:title>Matplotlib v3.6.2, https://matplotlib.org/</dc:title>
     </cc:Agent>
    </dc:creator>
   </cc:Work>
  </rdf:RDF>
 </metadata>
 <defs>
  <style type="text/css">*{stroke-linejoin: round; stroke-linecap: butt}</style>
 </defs>
 <g id="figure_1">
  <g id="patch_1">
   <path d="M 0 432 
L 864 432 
L 864 0 
L 0 0 
z
" style="fill: #ffffff"/>
  </g>
  <g id="axes_1">
   <g id="patch_2">
    <path d="M 108 384.48 
L 777.6 384.48 
L 777.6 51.84 
L 108 51.84 
z
" style="fill: #ffffff"/>
   </g>
   <g id="PolyCollection_1"/>
   <g id="PolyCollection_2"/>
   <g id="matplotlib.axis_1">
    <g id="xtick_1">
     <g id="line2d_1">
      <defs>
       <path id="m6c27f991ae" d="M 0 0 
L 0 3.5 
" style="stroke: #000000; stroke-width: 0.8"/>
      </defs>
      <g>
       <use xlink:href="#m6c27f991ae" x="138.436364" y="384.48" style="stroke: #000000; stroke-width: 0.8"/>
      </g>
     </g>
     <g id="text_1">
      <!-- 0 -->
      <g transform="translate(135.255114 399.078438) scale(0.1 -0.1)">
       <defs>
        <path id="DejaVuSans-30" d="M 2034 4250 
Q 1547 4250 1301 3770 
Q 1056 3291 1056 2328 
Q 1056 1369 1301 889 
Q 1547 409 2034 409 
Q 2525 409 2770 889 
Q 3016 1369 3016 2328 
Q 3016 3291 2770 3770 
Q 2525 4250 2034 4250 
z
M 2034 4750 
Q 2819 4750 3233 4129 
Q 3647 3509 3647 2328 
Q 3647 1150 3233 529 
Q 2819 -91 2034 -91 
Q 1250 -91 836 529 
Q 422 1150 422 2328 
Q 422 3509 836 4129 
Q 1250 4750 2034 4750 
z
" transform="scale(0.015625)"/>
       </defs>
       <use xlink:href="#DejaVuSans-30"/>
      </g>
     </g>
    </g>
    <g id="xtick_2">
     <g id="line2d_2">
      <g>
       <use xlink:href="#m6c27f991ae" x="260.425797" y="384.48" style="stroke: #000000; stroke-width: 0.8"/>
      </g>
     </g>
     <g id="text_2">
      <!-- 200 -->
      <g transform="translate(250.882047 399.078438) scale(0.1 -0.1)">
       <defs>
        <path id="DejaVuSans-32" d="M 1228 531 
L 3431 531 
L 3431 0 
L 469 0 
L 469 531 
Q 828 903 1448 1529 
Q 2069 2156 2228 2338 
Q 2531 2678 2651 2914 
Q 2772 3150 2772 3378 
Q 2772 3750 2511 3984 
Q 2250 4219 1831 4219 
Q 1534 4219 1204 4116 
Q 875 4013 500 3803 
L 500 4441 
Q 881 4594 1212 4672 
Q 1544 4750 1819 4750 
Q 2544 4750 2975 4387 
Q 3406 4025 3406 3419 
Q 3406 3131 3298 2873 
Q 3191 2616 2906 2266 
Q 2828 2175 2409 1742 
Q 1991 1309 1228 531 
z
" transform="scale(0.015625)"/>
       </defs>
       <use xlink:href="#DejaVuSans-32"/>
       <use xlink:href="#DejaVuSans-30" x="63.623047"/>
       <use xlink:href="#DejaVuSans-30" x="127.246094"/>
      </g>
     </g>
    </g>
    <g id="xtick_3">
     <g id="line2d_3">
      <g>
       <use xlink:href="#m6c27f991ae" x="382.41523" y="384.48" style="stroke: #000000; stroke-width: 0.8"/>
      </g>
     </g>
     <g id="text_3">
      <!-- 400 -->
      <g transform="translate(372.87148 399.078438) scale(0.1 -0.1)">
       <defs>
        <path id="DejaVuSans-34" d="M 2419 4116 
L 825 1625 
L 2419 1625 
L 2419 4116 
z
M 2253 4666 
L 3047 4666 
L 3047 1625 
L 3713 1625 
L 3713 1100 
L 3047 1100 
L 3047 0 
L 2419 0 
L 2419 1100 
L 313 1100 
L 313 1709 
L 2253 4666 
z
" transform="scale(0.015625)"/>
       </defs>
       <use xlink:href="#DejaVuSans-34"/>
       <use xlink:href="#DejaVuSans-30" x="63.623047"/>
       <use xlink:href="#DejaVuSans-30" x="127.246094"/>
      </g>
     </g>
    </g>
    <g id="xtick_4">
     <g id="line2d_4">
      <g>
       <use xlink:href="#m6c27f991ae" x="504.404664" y="384.48" style="stroke: #000000; stroke-width: 0.8"/>
      </g>
     </g>
     <g id="text_4">
      <!-- 600 -->
      <g transform="translate(494.860914 399.078438) scale(0.1 -0.1)">
       <defs>
        <path id="DejaVuSans-36" d="M 2113 2584 
Q 1688 2584 1439 2293 
Q 1191 2003 1191 1497 
Q 1191 994 1439 701 
Q 1688 409 2113 409 
Q 2538 409 2786 701 
Q 3034 994 3034 1497 
Q 3034 2003 2786 2293 
Q 2538 2584 2113 2584 
z
M 3366 4563 
L 3366 3988 
Q 3128 4100 2886 4159 
Q 2644 4219 2406 4219 
Q 1781 4219 1451 3797 
Q 1122 3375 1075 2522 
Q 1259 2794 1537 2939 
Q 1816 3084 2150 3084 
Q 2853 3084 3261 2657 
Q 3669 2231 3669 1497 
Q 3669 778 3244 343 
Q 2819 -91 2113 -91 
Q 1303 -91 875 529 
Q 447 1150 447 2328 
Q 447 3434 972 4092 
Q 1497 4750 2381 4750 
Q 2619 4750 2861 4703 
Q 3103 4656 3366 4563 
z
" transform="scale(0.015625)"/>
       </defs>
       <use xlink:href="#DejaVuSans-36"/>
       <use xlink:href="#DejaVuSans-30" x="63.623047"/>
       <use xlink:href="#DejaVuSans-30" x="127.246094"/>
      </g>
     </g>
    </g>
    <g id="xtick_5">
     <g id="line2d_5">
      <g>
       <use xlink:href="#m6c27f991ae" x="626.394097" y="384.48" style="stroke: #000000; stroke-width: 0.8"/>
      </g>
     </g>
     <g id="text_5">
      <!-- 800 -->
      <g transform="translate(616.850347 399.078438) scale(0.1 -0.1)">
       <defs>
        <path id="DejaVuSans-38" d="M 2034 2216 
Q 1584 2216 1326 1975 
Q 1069 1734 1069 1313 
Q 1069 891 1326 650 
Q 1584 409 2034 409 
Q 2484 409 2743 651 
Q 3003 894 3003 1313 
Q 3003 1734 2745 1975 
Q 2488 2216 2034 2216 
z
M 1403 2484 
Q 997 2584 770 2862 
Q 544 3141 544 3541 
Q 544 4100 942 4425 
Q 1341 4750 2034 4750 
Q 2731 4750 3128 4425 
Q 3525 4100 3525 3541 
Q 3525 3141 3298 2862 
Q 3072 2584 2669 2484 
Q 3125 2378 3379 2068 
Q 3634 1759 3634 1313 
Q 3634 634 3220 271 
Q 2806 -91 2034 -91 
Q 1263 -91 848 271 
Q 434 634 434 1313 
Q 434 1759 690 2068 
Q 947 2378 1403 2484 
z
M 1172 3481 
Q 1172 3119 1398 2916 
Q 1625 2713 2034 2713 
Q 2441 2713 2670 2916 
Q 2900 3119 2900 3481 
Q 2900 3844 2670 4047 
Q 2441 4250 2034 4250 
Q 1625 4250 1398 4047 
Q 1172 3844 1172 3481 
z
" transform="scale(0.015625)"/>
       </defs>
       <use xlink:href="#DejaVuSans-38"/>
       <use xlink:href="#DejaVuSans-30" x="63.623047"/>
       <use xlink:href="#DejaVuSans-30" x="127.246094"/>
      </g>
     </g>
    </g>
    <g id="xtick_6">
     <g id="line2d_6">
      <g>
       <use xlink:href="#m6c27f991ae" x="748.383531" y="384.48" style="stroke: #000000; stroke-width: 0.8"/>
      </g>
     </g>
     <g id="text_6">
      <!-- 1000 -->
      <g transform="translate(735.658531 399.078438) scale(0.1 -0.1)">
       <defs>
        <path id="DejaVuSans-31" d="M 794 531 
L 1825 531 
L 1825 4091 
L 703 3866 
L 703 4441 
L 1819 4666 
L 2450 4666 
L 2450 531 
L 3481 531 
L 3481 0 
L 794 0 
L 794 531 
z
" transform="scale(0.015625)"/>
       </defs>
       <use xlink:href="#DejaVuSans-31"/>
       <use xlink:href="#DejaVuSans-30" x="63.623047"/>
       <use xlink:href="#DejaVuSans-30" x="127.246094"/>
       <use xlink:href="#DejaVuSans-30" x="190.869141"/>
      </g>
     </g>
    </g>
    <g id="text_7">
     <!-- BABIP + OBP + wRAA -->
     <g transform="translate(388.570312 412.756563) scale(0.1 -0.1)">
      <defs>
       <path id="DejaVuSans-42" d="M 1259 2228 
L 1259 519 
L 2272 519 
Q 2781 519 3026 730 
Q 3272 941 3272 1375 
Q 3272 1813 3026 2020 
Q 2781 2228 2272 2228 
L 1259 2228 
z
M 1259 4147 
L 1259 2741 
L 2194 2741 
Q 2656 2741 2882 2914 
Q 3109 3088 3109 3444 
Q 3109 3797 2882 3972 
Q 2656 4147 2194 4147 
L 1259 4147 
z
M 628 4666 
L 2241 4666 
Q 2963 4666 3353 4366 
Q 3744 4066 3744 3513 
Q 3744 3084 3544 2831 
Q 3344 2578 2956 2516 
Q 3422 2416 3680 2098 
Q 3938 1781 3938 1306 
Q 3938 681 3513 340 
Q 3088 0 2303 0 
L 628 0 
L 628 4666 
z
" transform="scale(0.015625)"/>
       <path id="DejaVuSans-41" d="M 2188 4044 
L 1331 1722 
L 3047 1722 
L 2188 4044 
z
M 1831 4666 
L 2547 4666 
L 4325 0 
L 3669 0 
L 3244 1197 
L 1141 1197 
L 716 0 
L 50 0 
L 1831 4666 
z
" transform="scale(0.015625)"/>
       <path id="DejaVuSans-49" d="M 628 4666 
L 1259 4666 
L 1259 0 
L 628 0 
L 628 4666 
z
" transform="scale(0.015625)"/>
       <path id="DejaVuSans-50" d="M 1259 4147 
L 1259 2394 
L 2053 2394 
Q 2494 2394 2734 2622 
Q 2975 2850 2975 3272 
Q 2975 3691 2734 3919 
Q 2494 4147 2053 4147 
L 1259 4147 
z
M 628 4666 
L 2053 4666 
Q 2838 4666 3239 4311 
Q 3641 3956 3641 3272 
Q 3641 2581 3239 2228 
Q 2838 1875 2053 1875 
L 1259 1875 
L 1259 0 
L 628 0 
L 628 4666 
z
" transform="scale(0.015625)"/>
       <path id="DejaVuSans-20" transform="scale(0.015625)"/>
       <path id="DejaVuSans-2b" d="M 2944 4013 
L 2944 2272 
L 4684 2272 
L 4684 1741 
L 2944 1741 
L 2944 0 
L 2419 0 
L 2419 1741 
L 678 1741 
L 678 2272 
L 2419 2272 
L 2419 4013 
L 2944 4013 
z
" transform="scale(0.015625)"/>
       <path id="DejaVuSans-4f" d="M 2522 4238 
Q 1834 4238 1429 3725 
Q 1025 3213 1025 2328 
Q 1025 1447 1429 934 
Q 1834 422 2522 422 
Q 3209 422 3611 934 
Q 4013 1447 4013 2328 
Q 4013 3213 3611 3725 
Q 3209 4238 2522 4238 
z
M 2522 4750 
Q 3503 4750 4090 4092 
Q 4678 3434 4678 2328 
Q 4678 1225 4090 567 
Q 3503 -91 2522 -91 
Q 1538 -91 948 565 
Q 359 1222 359 2328 
Q 359 3434 948 4092 
Q 1538 4750 2522 4750 
z
" transform="scale(0.015625)"/>
       <path id="DejaVuSans-77" d="M 269 3500 
L 844 3500 
L 1563 769 
L 2278 3500 
L 2956 3500 
L 3675 769 
L 4391 3500 
L 4966 3500 
L 4050 0 
L 3372 0 
L 2619 2869 
L 1863 0 
L 1184 0 
L 269 3500 
z
" transform="scale(0.015625)"/>
       <path id="DejaVuSans-52" d="M 2841 2188 
Q 3044 2119 3236 1894 
Q 3428 1669 3622 1275 
L 4263 0 
L 3584 0 
L 2988 1197 
Q 2756 1666 2539 1819 
Q 2322 1972 1947 1972 
L 1259 1972 
L 1259 0 
L 628 0 
L 628 4666 
L 2053 4666 
Q 2853 4666 3247 4331 
Q 3641 3997 3641 3322 
Q 3641 2881 3436 2590 
Q 3231 2300 2841 2188 
z
M 1259 4147 
L 1259 2491 
L 2053 2491 
Q 2509 2491 2742 2702 
Q 2975 2913 2975 3322 
Q 2975 3731 2742 3939 
Q 2509 4147 2053 4147 
L 1259 4147 
z
" transform="scale(0.015625)"/>
      </defs>
      <use xlink:href="#DejaVuSans-42"/>
      <use xlink:href="#DejaVuSans-41" x="68.603516"/>
      <use xlink:href="#DejaVuSans-42" x="137.011719"/>
      <use xlink:href="#DejaVuSans-49" x="205.615234"/>
      <use xlink:href="#DejaVuSans-50" x="235.107422"/>
      <use xlink:href="#DejaVuSans-20" x="295.410156"/>
      <use xlink:href="#DejaVuSans-2b" x="327.197266"/>
      <use xlink:href="#DejaVuSans-20" x="410.986328"/>
      <use xlink:href="#DejaVuSans-4f" x="442.773438"/>
      <use xlink:href="#DejaVuSans-42" x="521.484375"/>
      <use xlink:href="#DejaVuSans-50" x="590.087891"/>
      <use xlink:href="#DejaVuSans-20" x="650.390625"/>
      <use xlink:href="#DejaVuSans-2b" x="682.177734"/>
      <use xlink:href="#DejaVuSans-20" x="765.966797"/>
      <use xlink:href="#DejaVuSans-77" x="797.753906"/>
      <use xlink:href="#DejaVuSans-52" x="879.541016"/>
      <use xlink:href="#DejaVuSans-41" x="945.023438"/>
      <use xlink:href="#DejaVuSans-41" x="1016.181641"/>
     </g>
    </g>
   </g>
   <g id="matplotlib.axis_2">
    <g id="ytick_1">
     <g id="line2d_7">
      <defs>
       <path id="m21b40db213" d="M 0 0 
L -3.5 0 
" style="stroke: #000000; stroke-width: 0.8"/>
      </defs>
      <g>
       <use xlink:href="#m21b40db213" x="108" y="376.793692" style="stroke: #000000; stroke-width: 0.8"/>
      </g>
     </g>
     <g id="text_8">
      <!-- 0.20 -->
      <g transform="translate(78.734375 380.592911) scale(0.1 -0.1)">
       <defs>
        <path id="DejaVuSans-2e" d="M 684 794 
L 1344 794 
L 1344 0 
L 684 0 
L 684 794 
z
" transform="scale(0.015625)"/>
       </defs>
       <use xlink:href="#DejaVuSans-30"/>
       <use xlink:href="#DejaVuSans-2e" x="63.623047"/>
       <use xlink:href="#DejaVuSans-32" x="95.410156"/>
       <use xlink:href="#DejaVuSans-30" x="159.033203"/>
      </g>
     </g>
    </g>
    <g id="ytick_2">
     <g id="line2d_8">
      <g>
       <use xlink:href="#m21b40db213" x="108" y="327.671957" style="stroke: #000000; stroke-width: 0.8"/>
      </g>
     </g>
     <g id="text_9">
      <!-- 0.25 -->
      <g transform="translate(78.734375 331.471176) scale(0.1 -0.1)">
       <defs>
        <path id="DejaVuSans-35" d="M 691 4666 
L 3169 4666 
L 3169 4134 
L 1269 4134 
L 1269 2991 
Q 1406 3038 1543 3061 
Q 1681 3084 1819 3084 
Q 2600 3084 3056 2656 
Q 3513 2228 3513 1497 
Q 3513 744 3044 326 
Q 2575 -91 1722 -91 
Q 1428 -91 1123 -41 
Q 819 9 494 109 
L 494 744 
Q 775 591 1075 516 
Q 1375 441 1709 441 
Q 2250 441 2565 725 
Q 2881 1009 2881 1497 
Q 2881 1984 2565 2268 
Q 2250 2553 1709 2553 
Q 1456 2553 1204 2497 
Q 953 2441 691 2322 
L 691 4666 
z
" transform="scale(0.015625)"/>
       </defs>
       <use xlink:href="#DejaVuSans-30"/>
       <use xlink:href="#DejaVuSans-2e" x="63.623047"/>
       <use xlink:href="#DejaVuSans-32" x="95.410156"/>
       <use xlink:href="#DejaVuSans-35" x="159.033203"/>
      </g>
     </g>
    </g>
    <g id="ytick_3">
     <g id="line2d_9">
      <g>
       <use xlink:href="#m21b40db213" x="108" y="278.550222" style="stroke: #000000; stroke-width: 0.8"/>
      </g>
     </g>
     <g id="text_10">
      <!-- 0.30 -->
      <g transform="translate(78.734375 282.34944) scale(0.1 -0.1)">
       <defs>
        <path id="DejaVuSans-33" d="M 2597 2516 
Q 3050 2419 3304 2112 
Q 3559 1806 3559 1356 
Q 3559 666 3084 287 
Q 2609 -91 1734 -91 
Q 1441 -91 1130 -33 
Q 819 25 488 141 
L 488 750 
Q 750 597 1062 519 
Q 1375 441 1716 441 
Q 2309 441 2620 675 
Q 2931 909 2931 1356 
Q 2931 1769 2642 2001 
Q 2353 2234 1838 2234 
L 1294 2234 
L 1294 2753 
L 1863 2753 
Q 2328 2753 2575 2939 
Q 2822 3125 2822 3475 
Q 2822 3834 2567 4026 
Q 2313 4219 1838 4219 
Q 1578 4219 1281 4162 
Q 984 4106 628 3988 
L 628 4550 
Q 988 4650 1302 4700 
Q 1616 4750 1894 4750 
Q 2613 4750 3031 4423 
Q 3450 4097 3450 3541 
Q 3450 3153 3228 2886 
Q 3006 2619 2597 2516 
z
" transform="scale(0.015625)"/>
       </defs>
       <use xlink:href="#DejaVuSans-30"/>
       <use xlink:href="#DejaVuSans-2e" x="63.623047"/>
       <use xlink:href="#DejaVuSans-33" x="95.410156"/>
       <use xlink:href="#DejaVuSans-30" x="159.033203"/>
      </g>
     </g>
    </g>
    <g id="ytick_4">
     <g id="line2d_10">
      <g>
       <use xlink:href="#m21b40db213" x="108" y="229.428487" style="stroke: #000000; stroke-width: 0.8"/>
      </g>
     </g>
     <g id="text_11">
      <!-- 0.35 -->
      <g transform="translate(78.734375 233.227705) scale(0.1 -0.1)">
       <use xlink:href="#DejaVuSans-30"/>
       <use xlink:href="#DejaVuSans-2e" x="63.623047"/>
       <use xlink:href="#DejaVuSans-33" x="95.410156"/>
       <use xlink:href="#DejaVuSans-35" x="159.033203"/>
      </g>
     </g>
    </g>
    <g id="ytick_5">
     <g id="line2d_11">
      <g>
       <use xlink:href="#m21b40db213" x="108" y="180.306751" style="stroke: #000000; stroke-width: 0.8"/>
      </g>
     </g>
     <g id="text_12">
      <!-- 0.40 -->
      <g transform="translate(78.734375 184.10597) scale(0.1 -0.1)">
       <use xlink:href="#DejaVuSans-30"/>
       <use xlink:href="#DejaVuSans-2e" x="63.623047"/>
       <use xlink:href="#DejaVuSans-34" x="95.410156"/>
       <use xlink:href="#DejaVuSans-30" x="159.033203"/>
      </g>
     </g>
    </g>
    <g id="ytick_6">
     <g id="line2d_12">
      <g>
       <use xlink:href="#m21b40db213" x="108" y="131.185016" style="stroke: #000000; stroke-width: 0.8"/>
      </g>
     </g>
     <g id="text_13">
      <!-- 0.45 -->
      <g transform="translate(78.734375 134.984235) scale(0.1 -0.1)">
       <use xlink:href="#DejaVuSans-30"/>
       <use xlink:href="#DejaVuSans-2e" x="63.623047"/>
       <use xlink:href="#DejaVuSans-34" x="95.410156"/>
       <use xlink:href="#DejaVuSans-35" x="159.033203"/>
      </g>
     </g>
    </g>
    <g id="ytick_7">
     <g id="line2d_13">
      <g>
       <use xlink:href="#m21b40db213" x="108" y="82.063281" style="stroke: #000000; stroke-width: 0.8"/>
      </g>
     </g>
     <g id="text_14">
      <!-- 0.50 -->
      <g transform="translate(78.734375 85.8625) scale(0.1 -0.1)">
       <use xlink:href="#DejaVuSans-30"/>
       <use xlink:href="#DejaVuSans-2e" x="63.623047"/>
       <use xlink:href="#DejaVuSans-35" x="95.410156"/>
       <use xlink:href="#DejaVuSans-30" x="159.033203"/>
      </g>
     </g>
    </g>
    <g id="text_15">
     <!-- wOBA predictions -->
     <g transform="translate(72.654687 262.313125) rotate(-90) scale(0.1 -0.1)">
      <defs>
       <path id="DejaVuSans-70" d="M 1159 525 
L 1159 -1331 
L 581 -1331 
L 581 3500 
L 1159 3500 
L 1159 2969 
Q 1341 3281 1617 3432 
Q 1894 3584 2278 3584 
Q 2916 3584 3314 3078 
Q 3713 2572 3713 1747 
Q 3713 922 3314 415 
Q 2916 -91 2278 -91 
Q 1894 -91 1617 61 
Q 1341 213 1159 525 
z
M 3116 1747 
Q 3116 2381 2855 2742 
Q 2594 3103 2138 3103 
Q 1681 3103 1420 2742 
Q 1159 2381 1159 1747 
Q 1159 1113 1420 752 
Q 1681 391 2138 391 
Q 2594 391 2855 752 
Q 3116 1113 3116 1747 
z
" transform="scale(0.015625)"/>
       <path id="DejaVuSans-72" d="M 2631 2963 
Q 2534 3019 2420 3045 
Q 2306 3072 2169 3072 
Q 1681 3072 1420 2755 
Q 1159 2438 1159 1844 
L 1159 0 
L 581 0 
L 581 3500 
L 1159 3500 
L 1159 2956 
Q 1341 3275 1631 3429 
Q 1922 3584 2338 3584 
Q 2397 3584 2469 3576 
Q 2541 3569 2628 3553 
L 2631 2963 
z
" transform="scale(0.015625)"/>
       <path id="DejaVuSans-65" d="M 3597 1894 
L 3597 1613 
L 953 1613 
Q 991 1019 1311 708 
Q 1631 397 2203 397 
Q 2534 397 2845 478 
Q 3156 559 3463 722 
L 3463 178 
Q 3153 47 2828 -22 
Q 2503 -91 2169 -91 
Q 1331 -91 842 396 
Q 353 884 353 1716 
Q 353 2575 817 3079 
Q 1281 3584 2069 3584 
Q 2775 3584 3186 3129 
Q 3597 2675 3597 1894 
z
M 3022 2063 
Q 3016 2534 2758 2815 
Q 2500 3097 2075 3097 
Q 1594 3097 1305 2825 
Q 1016 2553 972 2059 
L 3022 2063 
z
" transform="scale(0.015625)"/>
       <path id="DejaVuSans-64" d="M 2906 2969 
L 2906 4863 
L 3481 4863 
L 3481 0 
L 2906 0 
L 2906 525 
Q 2725 213 2448 61 
Q 2172 -91 1784 -91 
Q 1150 -91 751 415 
Q 353 922 353 1747 
Q 353 2572 751 3078 
Q 1150 3584 1784 3584 
Q 2172 3584 2448 3432 
Q 2725 3281 2906 2969 
z
M 947 1747 
Q 947 1113 1208 752 
Q 1469 391 1925 391 
Q 2381 391 2643 752 
Q 2906 1113 2906 1747 
Q 2906 2381 2643 2742 
Q 2381 3103 1925 3103 
Q 1469 3103 1208 2742 
Q 947 2381 947 1747 
z
" transform="scale(0.015625)"/>
       <path id="DejaVuSans-69" d="M 603 3500 
L 1178 3500 
L 1178 0 
L 603 0 
L 603 3500 
z
M 603 4863 
L 1178 4863 
L 1178 4134 
L 603 4134 
L 603 4863 
z
" transform="scale(0.015625)"/>
       <path id="DejaVuSans-63" d="M 3122 3366 
L 3122 2828 
Q 2878 2963 2633 3030 
Q 2388 3097 2138 3097 
Q 1578 3097 1268 2742 
Q 959 2388 959 1747 
Q 959 1106 1268 751 
Q 1578 397 2138 397 
Q 2388 397 2633 464 
Q 2878 531 3122 666 
L 3122 134 
Q 2881 22 2623 -34 
Q 2366 -91 2075 -91 
Q 1284 -91 818 406 
Q 353 903 353 1747 
Q 353 2603 823 3093 
Q 1294 3584 2113 3584 
Q 2378 3584 2631 3529 
Q 2884 3475 3122 3366 
z
" transform="scale(0.015625)"/>
       <path id="DejaVuSans-74" d="M 1172 4494 
L 1172 3500 
L 2356 3500 
L 2356 3053 
L 1172 3053 
L 1172 1153 
Q 1172 725 1289 603 
Q 1406 481 1766 481 
L 2356 481 
L 2356 0 
L 1766 0 
Q 1100 0 847 248 
Q 594 497 594 1153 
L 594 3053 
L 172 3053 
L 172 3500 
L 594 3500 
L 594 4494 
L 1172 4494 
z
" transform="scale(0.015625)"/>
       <path id="DejaVuSans-6f" d="M 1959 3097 
Q 1497 3097 1228 2736 
Q 959 2375 959 1747 
Q 959 1119 1226 758 
Q 1494 397 1959 397 
Q 2419 397 2687 759 
Q 2956 1122 2956 1747 
Q 2956 2369 2687 2733 
Q 2419 3097 1959 3097 
z
M 1959 3584 
Q 2709 3584 3137 3096 
Q 3566 2609 3566 1747 
Q 3566 888 3137 398 
Q 2709 -91 1959 -91 
Q 1206 -91 779 398 
Q 353 888 353 1747 
Q 353 2609 779 3096 
Q 1206 3584 1959 3584 
z
" transform="scale(0.015625)"/>
       <path id="DejaVuSans-6e" d="M 3513 2113 
L 3513 0 
L 2938 0 
L 2938 2094 
Q 2938 2591 2744 2837 
Q 2550 3084 2163 3084 
Q 1697 3084 1428 2787 
Q 1159 2491 1159 1978 
L 1159 0 
L 581 0 
L 581 3500 
L 1159 3500 
L 1159 2956 
Q 1366 3272 1645 3428 
Q 1925 3584 2291 3584 
Q 2894 3584 3203 3211 
Q 3513 2838 3513 2113 
z
" transform="scale(0.015625)"/>
       <path id="DejaVuSans-73" d="M 2834 3397 
L 2834 2853 
Q 2591 2978 2328 3040 
Q 2066 3103 1784 3103 
Q 1356 3103 1142 2972 
Q 928 2841 928 2578 
Q 928 2378 1081 2264 
Q 1234 2150 1697 2047 
L 1894 2003 
Q 2506 1872 2764 1633 
Q 3022 1394 3022 966 
Q 3022 478 2636 193 
Q 2250 -91 1575 -91 
Q 1294 -91 989 -36 
Q 684 19 347 128 
L 347 722 
Q 666 556 975 473 
Q 1284 391 1588 391 
Q 1994 391 2212 530 
Q 2431 669 2431 922 
Q 2431 1156 2273 1281 
Q 2116 1406 1581 1522 
L 1381 1569 
Q 847 1681 609 1914 
Q 372 2147 372 2553 
Q 372 3047 722 3315 
Q 1072 3584 1716 3584 
Q 2034 3584 2315 3537 
Q 2597 3491 2834 3397 
z
" transform="scale(0.015625)"/>
      </defs>
      <use xlink:href="#DejaVuSans-77"/>
      <use xlink:href="#DejaVuSans-4f" x="81.787109"/>
      <use xlink:href="#DejaVuSans-42" x="160.498047"/>
      <use xlink:href="#DejaVuSans-41" x="229.101562"/>
      <use xlink:href="#DejaVuSans-20" x="297.509766"/>
      <use xlink:href="#DejaVuSans-70" x="329.296875"/>
      <use xlink:href="#DejaVuSans-72" x="392.773438"/>
      <use xlink:href="#DejaVuSans-65" x="431.636719"/>
      <use xlink:href="#DejaVuSans-64" x="493.160156"/>
      <use xlink:href="#DejaVuSans-69" x="556.636719"/>
      <use xlink:href="#DejaVuSans-63" x="584.419922"/>
      <use xlink:href="#DejaVuSans-74" x="639.400391"/>
      <use xlink:href="#DejaVuSans-69" x="678.609375"/>
      <use xlink:href="#DejaVuSans-6f" x="706.392578"/>
      <use xlink:href="#DejaVuSans-6e" x="767.574219"/>
      <use xlink:href="#DejaVuSans-73" x="830.953125"/>
     </g>
    </g>
   </g>
   <g id="line2d_14">
    <path d="M 138.436364 216.194067 
L 139.046311 215.001451 
L 139.656258 267.165953 
L 140.266205 232.247755 
L 140.876152 259.44345 
L 141.486099 245.537241 
L 142.096047 279.496495 
L 142.705994 209.000516 
L 143.315941 255.730627 
L 143.925888 170.240028 
L 145.145782 278.26112 
L 145.75573 210.903136 
L 146.365677 264.730037 
L 146.975624 232.625147 
L 147.585571 246.885309 
L 148.195518 273.611684 
L 148.805465 268.425894 
L 149.415413 188.953246 
L 150.02536 229.075634 
L 150.635307 237.432523 
L 151.245254 185.933332 
L 151.855201 242.808079 
L 152.465148 213.488433 
L 153.075096 215.859297 
L 153.685043 239.668008 
L 154.29499 178.42324 
L 154.904937 228.119531 
L 155.514884 230.251331 
L 156.124831 265.194379 
L 156.734779 225.993171 
L 157.344726 241.15222 
L 157.954673 207.35613 
L 158.56462 210.43014 
L 159.174567 249.177165 
L 159.784514 246.215919 
L 160.394462 222.127705 
L 161.004409 236.382866 
L 161.614356 229.940044 
L 162.224303 260.835418 
L 162.83425 247.95939 
L 163.444197 214.873054 
L 164.054145 223.335545 
L 164.664092 205.880728 
L 165.274039 226.912234 
L 165.883986 261.804376 
L 166.493933 257.075042 
L 167.10388 204.892813 
L 167.713828 224.815063 
L 168.323775 204.335925 
L 168.933722 222.921876 
L 169.543669 232.571669 
L 170.153616 253.598919 
L 170.763563 183.734147 
L 171.373511 257.246162 
L 171.983458 210.224871 
L 172.593405 228.47619 
L 173.203352 222.483962 
L 173.813299 244.508013 
L 174.423246 257.231242 
L 175.033194 146.701018 
L 175.643141 180.728147 
L 176.253088 189.13451 
L 176.863035 201.446834 
L 177.472982 200.466399 
L 178.082929 232.621249 
L 178.692877 284.426965 
L 179.912771 194.890149 
L 180.522718 225.383395 
L 181.132665 235.908287 
L 181.742612 195.132135 
L 182.35256 231.832233 
L 182.962507 196.256358 
L 183.572454 273.037418 
L 184.182401 255.948948 
L 184.792348 226.266485 
L 185.402296 272.323801 
L 186.012243 241.60282 
L 186.62219 161.511685 
L 187.232137 164.869377 
L 187.842084 182.307629 
L 188.452031 249.615063 
L 189.061979 245.163107 
L 189.671926 206.839912 
L 190.281873 213.438071 
L 190.89182 173.050731 
L 191.501767 196.256177 
L 192.111714 166.490222 
L 192.721662 198.885127 
L 193.331609 168.176576 
L 193.941556 197.121246 
L 194.551503 166.466674 
L 195.16145 187.96581 
L 195.771397 203.225933 
L 196.991292 259.088643 
L 197.601239 202.714129 
L 198.211186 244.106871 
L 198.821133 202.756107 
L 199.43108 229.550373 
L 200.041028 184.056356 
L 200.650975 270.728319 
L 201.260922 258.048035 
L 201.870869 211.333159 
L 202.480816 255.136615 
L 203.090763 272.443847 
L 203.700711 243.071755 
L 204.310658 229.76547 
L 204.920605 291.277631 
L 205.530552 216.059155 
L 206.140499 251.125913 
L 206.750446 238.693999 
L 207.360394 212.623205 
L 207.970341 214.633625 
L 208.580288 196.960981 
L 209.190235 274.380173 
L 209.800182 232.191612 
L 210.410129 235.809988 
L 211.020077 263.960591 
L 211.630024 226.551225 
L 212.239971 169.91139 
L 212.849918 204.842985 
L 213.459865 307.444466 
L 214.069812 246.79446 
L 214.67976 263.940852 
L 215.289707 233.687318 
L 215.899654 231.703381 
L 216.509601 232.196041 
L 217.119548 192.381128 
L 217.729495 187.800142 
L 218.339443 315.609694 
L 218.94939 247.124729 
L 219.559337 251.850147 
L 220.169284 264.413476 
L 220.779231 234.889965 
L 221.389178 263.828454 
L 221.999126 199.565481 
L 222.609073 256.740606 
L 223.828967 206.762336 
L 224.438914 218.74397 
L 225.048861 226.529189 
L 225.658809 280.091419 
L 226.268756 296.469724 
L 226.878703 212.128638 
L 227.48865 199.3436 
L 228.098597 264.569075 
L 229.318492 210.546265 
L 230.538386 275.698946 
L 231.148333 265.738752 
L 231.75828 267.987568 
L 232.368227 181.767727 
L 233.588122 238.63284 
L 234.198069 222.714388 
L 234.808016 199.002117 
L 235.417963 235.162184 
L 236.02791 298.24571 
L 236.637858 255.337648 
L 237.247805 261.350459 
L 237.857752 283.044245 
L 238.467699 278.581668 
L 239.077646 281.371838 
L 239.687593 213.748501 
L 240.297541 271.420113 
L 240.907488 221.817992 
L 241.517435 243.050642 
L 242.127382 212.215044 
L 242.737329 242.354216 
L 243.347276 249.05529 
L 243.957224 207.794076 
L 244.567171 223.339981 
L 245.177118 263.302251 
L 245.787065 197.620285 
L 246.397012 232.182485 
L 247.006959 199.247455 
L 247.616907 220.277239 
L 248.226854 236.298047 
L 248.836801 245.066336 
L 249.446748 222.834694 
L 250.056695 273.232606 
L 250.666642 225.594877 
L 251.27659 245.754559 
L 251.886537 190.866904 
L 252.496484 267.365229 
L 253.716378 258.607467 
L 254.326325 215.372418 
L 254.936273 251.530316 
L 255.54622 234.812304 
L 256.156167 253.6307 
L 256.766114 217.156233 
L 257.376061 276.066446 
L 257.986008 234.845361 
L 258.595956 243.665084 
L 259.205903 213.49372 
L 259.81585 239.234604 
L 260.425797 253.495837 
L 261.035744 220.788977 
L 261.645691 229.218238 
L 262.255639 290.477617 
L 262.865586 238.822149 
L 263.475533 266.218045 
L 264.08548 197.522976 
L 264.695427 263.885551 
L 265.305374 267.988366 
L 265.915322 216.383737 
L 266.525269 237.105078 
L 267.135216 275.94496 
L 267.745163 290.723891 
L 268.35511 259.347892 
L 268.965057 203.103333 
L 269.575005 220.139679 
L 270.184952 277.087066 
L 270.794899 247.899654 
L 271.404846 238.235775 
L 272.014793 257.029597 
L 272.62474 208.68231 
L 273.234688 245.064627 
L 273.844635 220.035495 
L 274.454582 226.31406 
L 275.064529 175.470764 
L 275.674476 242.968666 
L 276.284423 199.971688 
L 276.894371 314.833125 
L 277.504318 219.429835 
L 278.724212 289.290278 
L 279.334159 213.099099 
L 279.944106 232.241618 
L 280.554054 214.78491 
L 281.164001 223.215259 
L 281.773948 237.584833 
L 282.383895 238.871508 
L 282.993842 256.174289 
L 283.603789 259.269207 
L 284.213737 250.965826 
L 284.823684 198.66818 
L 285.433631 244.78718 
L 286.043578 215.958241 
L 286.653525 163.841451 
L 287.263472 263.85083 
L 287.87342 176.381702 
L 288.483367 184.183603 
L 289.093314 212.040455 
L 289.703261 222.069835 
L 290.313208 300.663917 
L 290.923155 203.576638 
L 291.533103 259.907532 
L 292.14305 288.936039 
L 292.752997 277.522215 
L 293.362944 281.613239 
L 293.972891 269.558973 
L 294.582838 231.603081 
L 295.192786 209.862642 
L 295.802733 249.521635 
L 296.41268 277.316265 
L 297.022627 147.122921 
L 297.632574 237.171846 
L 298.242521 232.540068 
L 298.852469 271.280894 
L 299.462416 238.03267 
L 300.072363 224.67182 
L 300.68231 180.296603 
L 301.292257 234.066483 
L 301.902204 205.981073 
L 302.512152 247.64587 
L 303.122099 253.539605 
L 303.732046 205.326223 
L 304.341993 280.303279 
L 304.95194 229.394756 
L 305.561887 189.910045 
L 306.171835 199.779987 
L 307.391729 229.153939 
L 308.001676 250.093471 
L 308.611623 288.582698 
L 309.22157 224.591264 
L 309.831518 215.298488 
L 310.441465 233.799856 
L 311.051412 196.845762 
L 311.661359 280.200682 
L 312.271306 249.598945 
L 312.881253 263.946304 
L 313.491201 202.655471 
L 314.101148 213.244718 
L 314.711095 301.811157 
L 315.321042 283.218331 
L 315.930989 271.405915 
L 316.540936 266.183782 
L 317.150884 220.623657 
L 317.760831 278.176795 
L 318.370778 110.286644 
L 318.980725 220.828857 
L 319.590672 211.969383 
L 320.200619 324.088079 
L 320.810567 219.528175 
L 321.420514 204.312691 
L 322.030461 229.289503 
L 322.640408 164.743785 
L 323.250355 170.526357 
L 323.860302 199.297561 
L 324.47025 256.37094 
L 325.080197 199.207371 
L 325.690144 265.718298 
L 326.300091 241.496688 
L 326.910038 175.817792 
L 327.519985 260.750088 
L 328.129933 193.768238 
L 328.73988 269.007006 
L 329.349827 272.677472 
L 329.959774 264.529038 
L 330.569721 218.897678 
L 331.179668 253.663525 
L 331.789616 246.723571 
L 332.399563 215.928729 
L 333.00951 202.627857 
L 333.619457 200.909312 
L 334.229404 223.749504 
L 334.839351 221.927487 
L 335.449299 274.224732 
L 336.059246 288.833551 
L 336.669193 271.632574 
L 337.27914 282.983754 
L 337.889087 178.565809 
L 338.499034 244.201072 
L 339.108982 256.688743 
L 339.718929 266.315609 
L 340.328876 295.035758 
L 340.938823 243.389761 
L 341.54877 210.528628 
L 342.158717 206.579363 
L 342.768665 223.467956 
L 343.378612 209.815436 
L 343.988559 218.813771 
L 344.598506 258.226707 
L 345.208453 275.494347 
L 345.8184 309.956571 
L 346.428348 233.20974 
L 347.038295 233.81843 
L 347.648242 219.893796 
L 348.258189 209.466483 
L 348.868136 203.760768 
L 349.478083 279.167657 
L 350.697978 240.368869 
L 351.307925 268.908952 
L 351.917872 212.637572 
L 353.137766 270.816475 
L 353.747714 237.647882 
L 354.357661 257.92993 
L 354.967608 200.607257 
L 355.577555 227.634775 
L 356.187502 237.083494 
L 356.797449 219.266834 
L 357.407397 242.374297 
L 358.017344 239.980311 
L 358.627291 235.854314 
L 359.237238 251.035719 
L 359.847185 256.779912 
L 360.457132 297.352235 
L 361.06708 254.833711 
L 361.677027 248.164821 
L 362.286974 234.916786 
L 362.896921 232.150072 
L 363.506868 225.761246 
L 364.116815 211.9127 
L 364.726763 221.765108 
L 365.33671 262.134066 
L 365.946657 235.96024 
L 367.166551 260.644976 
L 367.776498 255.577442 
L 368.386446 201.161186 
L 368.996393 243.204483 
L 369.60634 194.08562 
L 370.216287 208.042146 
L 370.826234 161.280169 
L 371.436181 245.05462 
L 372.046129 168.555134 
L 372.656076 246.893979 
L 373.266023 220.883437 
L 373.87597 239.39784 
L 374.485917 247.968824 
L 375.095864 248.306147 
L 375.705812 183.425043 
L 376.315759 278.228452 
L 376.925706 159.01732 
L 377.535653 207.354298 
L 378.1456 215.660595 
L 378.755547 279.575932 
L 379.365495 178.533441 
L 379.975442 216.161637 
L 380.585389 241.261546 
L 381.195336 184.550499 
L 381.805283 233.069675 
L 382.41523 262.353976 
L 383.025178 201.642889 
L 383.635125 155.13058 
L 384.245072 219.574376 
L 384.855019 182.170626 
L 385.464966 230.628091 
L 386.074913 243.206189 
L 386.684861 207.73587 
L 387.294808 196.101308 
L 387.904755 209.218803 
L 388.514702 250.313712 
L 389.124649 247.310423 
L 389.734596 248.336067 
L 390.344544 244.678152 
L 390.954491 263.096986 
L 391.564438 338.251801 
L 392.174385 244.226045 
L 392.784332 203.084996 
L 393.394279 244.86389 
L 394.004227 198.966074 
L 394.614174 227.074255 
L 395.224121 206.326722 
L 395.834068 222.392775 
L 396.444015 271.249806 
L 397.053962 224.264618 
L 397.66391 267.739801 
L 398.273857 251.976757 
L 398.883804 269.425289 
L 399.493751 178.215083 
L 400.103698 248.783585 
L 400.713645 299.851298 
L 401.323593 198.216804 
L 401.93354 241.734494 
L 402.543487 241.866774 
L 403.153434 272.649287 
L 403.763381 221.088531 
L 404.373328 196.658333 
L 404.983276 231.514524 
L 405.593223 222.998361 
L 406.20317 269.720659 
L 406.813117 242.5859 
L 407.423064 250.587054 
L 408.033011 250.916709 
L 408.642959 210.886486 
L 409.252906 228.226931 
L 409.862853 275.653717 
L 410.4728 215.211622 
L 411.082747 227.259267 
L 411.692694 225.812595 
L 412.302642 216.97802 
L 412.912589 273.409308 
L 413.522536 225.259281 
L 414.132483 231.257422 
L 414.74243 238.576592 
L 415.352377 261.381142 
L 415.962325 260.872303 
L 416.572272 184.297477 
L 417.182219 202.905003 
L 417.792166 264.105375 
L 418.402113 278.027244 
L 419.01206 173.397141 
L 419.622008 235.366041 
L 420.231955 208.286679 
L 420.841902 158.708234 
L 421.451849 242.437839 
L 422.061796 236.193062 
L 422.671743 303.827152 
L 423.281691 242.334426 
L 423.891638 276.071981 
L 424.501585 220.384773 
L 425.111532 204.272813 
L 425.721479 234.676042 
L 426.331426 204.392239 
L 426.941374 251.326142 
L 427.551321 228.803292 
L 428.161268 226.351856 
L 428.771215 257.41842 
L 429.381162 200.955685 
L 429.991109 245.366117 
L 430.601057 235.881142 
L 431.211004 285.902852 
L 431.820951 269.03739 
L 432.430898 241.433158 
L 433.040845 243.333614 
L 433.650792 289.887946 
L 434.26074 243.342897 
L 434.870687 238.288344 
L 435.480634 142.260213 
L 436.090581 314.518434 
L 436.700528 207.884612 
L 437.310475 220.629945 
L 437.920423 265.251936 
L 438.53037 221.365891 
L 439.140317 196.335305 
L 439.750264 219.18702 
L 440.360211 172.178127 
L 440.970158 248.326765 
L 441.580106 225.599183 
L 442.190053 210.255563 
L 442.8 238.427948 
L 443.409947 251.46635 
L 444.019894 204.526744 
L 445.239789 283.271762 
L 445.849736 170.145393 
L 446.459683 129.167662 
L 447.06963 218.502229 
L 447.679577 172.093159 
L 448.289525 177.789677 
L 448.899472 294.398787 
L 449.509419 277.915104 
L 450.119366 252.094927 
L 450.729313 165.789751 
L 451.33926 236.979101 
L 451.949208 212.494808 
L 452.559155 212.623768 
L 453.169102 263.09337 
L 453.779049 240.258174 
L 454.388996 164.450972 
L 454.998943 204.575909 
L 455.608891 199.469829 
L 456.218838 233.276564 
L 456.828785 249.276892 
L 457.438732 307.06551 
L 458.048679 179.628297 
L 458.658626 213.715579 
L 459.268574 195.015192 
L 459.878521 238.922752 
L 460.488468 311.48692 
L 461.098415 281.430116 
L 461.708362 230.956326 
L 462.318309 206.698307 
L 462.928257 197.837147 
L 463.538204 217.915279 
L 464.148151 364.604812 
L 464.758098 259.084096 
L 465.368045 235.962073 
L 465.977992 261.567696 
L 466.58794 188.864348 
L 467.197887 238.219241 
L 467.807834 171.322934 
L 468.417781 208.015523 
L 469.027728 318.989715 
L 469.637675 210.989388 
L 470.247623 267.911302 
L 470.85757 246.248085 
L 471.467517 268.61336 
L 472.077464 254.522004 
L 472.687411 269.735259 
L 473.297358 209.690414 
L 473.907306 292.010705 
L 474.517253 305.985938 
L 475.1272 257.667607 
L 475.737147 231.123841 
L 476.347094 240.433228 
L 476.957041 247.390226 
L 477.566989 193.441064 
L 478.176936 212.786378 
L 478.786883 224.916432 
L 479.39683 221.479392 
L 480.006777 148.999458 
L 480.616724 210.205052 
L 481.226672 247.767538 
L 481.836619 202.878061 
L 482.446566 236.177767 
L 483.056513 276.482716 
L 483.66646 248.345557 
L 484.276407 211.056899 
L 484.886355 278.486775 
L 485.496302 167.167882 
L 486.106249 240.009785 
L 486.716196 160.840415 
L 487.326143 234.63427 
L 487.93609 143.055944 
L 488.546038 248.604004 
L 489.155985 281.693256 
L 489.765932 216.344097 
L 490.375879 285.180054 
L 490.985826 233.496927 
L 491.595773 199.797092 
L 492.205721 211.461404 
L 492.815668 269.66049 
L 493.425615 238.725805 
L 494.035562 131.131336 
L 494.645509 265.201295 
L 495.255456 66.96 
L 495.865404 181.775412 
L 496.475351 250.174803 
L 497.085298 148.728262 
L 497.695245 248.033781 
L 498.305192 232.750502 
L 498.915139 181.699022 
L 499.525087 266.559662 
L 500.135034 251.92696 
L 500.744981 188.290276 
L 501.354928 268.997541 
L 501.964875 203.56165 
L 502.574822 301.788848 
L 503.794717 204.779237 
L 504.404664 202.425961 
L 505.014611 262.408877 
L 505.624558 207.061291 
L 506.234505 222.324916 
L 506.844453 165.576004 
L 507.4544 202.814099 
L 508.064347 199.942264 
L 508.674294 282.563204 
L 509.284241 192.493601 
L 509.894188 268.878319 
L 510.504136 199.527994 
L 511.72403 314.346704 
L 512.333977 212.181003 
L 512.943924 174.8033 
L 513.553871 170.275238 
L 514.163819 181.384121 
L 514.773766 213.62116 
L 515.383713 256.411256 
L 515.99366 155.961683 
L 516.603607 280.175711 
L 517.213554 176.147051 
L 517.823502 237.245818 
L 518.433449 229.430406 
L 519.043396 207.477959 
L 519.653343 234.29914 
L 520.26329 168.170515 
L 520.873237 268.74942 
L 521.483185 201.417701 
L 522.093132 270.212018 
L 522.703079 210.342307 
L 523.313026 286.466031 
L 523.922973 122.241133 
L 524.53292 231.524005 
L 525.142868 239.725011 
L 525.752815 250.939615 
L 526.362762 256.542635 
L 526.972709 282.773328 
L 527.582656 226.232681 
L 528.802551 238.289008 
L 529.412498 237.438872 
L 530.022445 229.402585 
L 530.632392 263.379729 
L 531.242339 282.612204 
L 531.852286 238.943896 
L 532.462234 255.831191 
L 533.072181 236.30524 
L 533.682128 229.439626 
L 534.292075 243.943678 
L 534.902022 204.82988 
L 535.511969 270.074574 
L 536.121917 222.228857 
L 536.731864 185.751605 
L 537.341811 194.268807 
L 537.951758 256.614593 
L 538.561705 247.157241 
L 539.171652 249.126438 
L 539.7816 225.759831 
L 540.391547 186.462206 
L 541.001494 238.231762 
L 541.611441 167.010519 
L 542.221388 278.833928 
L 542.831335 187.828327 
L 543.441283 222.874492 
L 544.05123 242.538666 
L 544.661177 235.862068 
L 545.271124 269.78971 
L 545.881071 283.825572 
L 546.491018 210.271756 
L 547.100966 197.716636 
L 547.710913 192.6818 
L 548.32086 174.585089 
L 548.930807 206.182776 
L 549.540754 266.65123 
L 550.150701 170.988106 
L 550.760649 238.986051 
L 551.370596 214.14745 
L 551.980543 196.614867 
L 552.59049 222.197137 
L 553.200437 203.45671 
L 553.810384 243.017971 
L 554.420332 177.38652 
L 555.030279 233.527608 
L 555.640226 171.067204 
L 556.250173 238.976151 
L 557.470067 228.745154 
L 558.080015 248.399949 
L 558.689962 186.113032 
L 559.299909 225.644335 
L 559.909856 117.597116 
L 560.519803 211.236404 
L 561.12975 217.656205 
L 561.739698 186.588191 
L 562.349645 232.604707 
L 562.959592 198.7588 
L 563.569539 251.668926 
L 564.179486 239.624408 
L 564.789433 328.892342 
L 565.399381 211.620374 
L 566.009328 278.111304 
L 566.619275 291.868778 
L 567.839169 135.297931 
L 568.449116 223.309988 
L 569.059064 131.407902 
L 569.669011 288.245144 
L 570.278958 218.215273 
L 570.888905 231.36788 
L 571.498852 200.529365 
L 572.108799 301.962298 
L 572.718747 208.012798 
L 573.328694 234.625113 
L 573.938641 279.427835 
L 574.548588 253.413422 
L 575.158535 232.564159 
L 575.768482 274.542791 
L 576.37843 201.428285 
L 576.988377 204.435165 
L 577.598324 186.466559 
L 578.208271 265.844806 
L 578.818218 254.066155 
L 579.428165 235.193914 
L 580.038113 237.186793 
L 580.64806 241.882602 
L 581.258007 221.891128 
L 581.867954 181.639925 
L 582.477901 171.982644 
L 583.087848 220.159229 
L 583.697796 195.933352 
L 584.307743 178.133514 
L 584.91769 189.385229 
L 585.527637 214.205747 
L 586.137584 214.709637 
L 586.747531 165.952948 
L 587.357479 248.385775 
L 587.967426 190.924882 
L 588.577373 204.080508 
L 589.18732 224.627797 
L 589.797267 220.22703 
L 590.407214 192.883201 
L 591.017162 191.220407 
L 591.627109 236.378872 
L 592.237056 251.162677 
L 592.847003 213.747151 
L 593.45695 244.922405 
L 594.066897 186.508665 
L 594.676845 258.604927 
L 595.286792 278.573632 
L 595.896739 164.684649 
L 596.506686 205.222585 
L 597.116633 188.821751 
L 597.72658 236.802676 
L 598.336528 208.466576 
L 598.946475 213.520999 
L 599.556422 196.807356 
L 600.166369 87.733878 
L 600.776316 152.881234 
L 601.386263 199.759589 
L 601.996211 209.717883 
L 602.606158 283.698907 
L 603.216105 217.094602 
L 603.826052 210.091948 
L 604.435999 143.838692 
L 605.045946 212.073343 
L 605.655894 116.042524 
L 606.265841 308.034904 
L 606.875788 145.311969 
L 607.485735 263.575278 
L 608.095682 233.980414 
L 608.705629 226.976453 
L 609.315577 194.710738 
L 609.925524 215.654242 
L 610.535471 211.879163 
L 611.145418 140.90394 
L 611.755365 288.380013 
L 612.365312 223.736833 
L 612.97526 183.587913 
L 613.585207 177.883692 
L 614.195154 121.72609 
L 614.805101 153.15823 
L 615.415048 279.507641 
L 616.024995 243.8902 
L 616.634943 216.081142 
L 617.24489 262.912584 
L 617.854837 182.475458 
L 618.464784 235.347688 
L 619.074731 191.125799 
L 619.684678 191.551595 
L 620.294626 211.742423 
L 620.904573 257.087231 
L 621.51452 165.254993 
L 622.124467 270.844986 
L 622.734414 166.040369 
L 623.344361 154.11734 
L 623.954309 293.429998 
L 624.564256 228.857522 
L 625.174203 209.601917 
L 625.78415 254.110614 
L 626.394097 149.657364 
L 627.004044 233.731742 
L 627.613992 186.910948 
L 628.223939 163.123676 
L 628.833886 204.348808 
L 629.443833 203.573751 
L 630.05378 103.926475 
L 630.663727 234.707143 
L 631.273675 149.396142 
L 631.883622 272.047932 
L 632.493569 181.788887 
L 633.103516 206.565055 
L 633.713463 254.886187 
L 634.933358 185.066877 
L 635.543305 275.280776 
L 636.763199 217.280471 
L 637.373146 165.453183 
L 638.593041 240.955836 
L 639.202988 234.195232 
L 639.812935 321.648788 
L 641.032829 211.684872 
L 641.642776 235.641527 
L 642.252724 115.772688 
L 642.862671 249.577751 
L 643.472618 183.365591 
L 644.082565 204.976162 
L 644.692512 278.606569 
L 645.302459 217.952302 
L 645.912407 180.322628 
L 646.522354 221.926406 
L 647.132301 225.182184 
L 647.742248 268.775276 
L 648.352195 269.164004 
L 648.962142 248.381684 
L 649.57209 351.480534 
L 650.182037 244.243952 
L 650.791984 230.207811 
L 651.401931 230.550013 
L 652.011878 241.619271 
L 652.621825 258.504229 
L 653.84172 174.185155 
L 655.061614 228.520786 
L 655.671561 293.84334 
L 656.281508 293.595117 
L 657.501403 258.187209 
L 658.11135 87.771999 
L 659.331244 201.132945 
L 659.941191 170.377829 
L 660.551139 178.518676 
L 661.161086 144.116085 
L 662.38098 276.752784 
L 662.990927 198.123068 
L 663.600874 169.516211 
L 664.210822 248.418864 
L 664.820769 292.592033 
L 665.430716 206.216437 
L 666.65061 173.716671 
L 667.260557 173.474143 
L 667.870505 225.09996 
L 668.480452 260.23216 
L 669.090399 240.504421 
L 669.700346 306.926699 
L 670.310293 183.006349 
L 670.92024 310.94068 
L 671.530188 116.583142 
L 672.750082 288.422304 
L 673.360029 247.904353 
L 673.969976 84.140795 
L 674.579923 125.795312 
L 675.189871 189.605363 
L 675.799818 283.524156 
L 676.409765 236.538464 
L 677.019712 134.671234 
L 677.629659 245.406048 
L 678.239606 163.334658 
L 678.849554 233.914818 
L 679.459501 222.212328 
L 680.069448 188.114503 
L 680.679395 204.844129 
L 681.289342 181.700002 
L 681.899289 179.495372 
L 682.509237 202.010879 
L 683.119184 188.117536 
L 683.729131 154.996414 
L 684.339078 345.053564 
L 684.949025 235.20439 
L 685.558972 236.466841 
L 686.16892 208.478952 
L 686.778867 271.699461 
L 687.388814 163.431266 
L 687.998761 125.823023 
L 688.608708 188.587603 
L 689.218655 266.892413 
L 689.828603 211.43056 
L 690.43855 220.479015 
L 691.048497 255.908905 
L 691.658444 201.670581 
L 692.268391 131.663623 
L 692.878338 345.671374 
L 693.488286 208.810193 
L 694.098233 230.427998 
L 694.70818 179.645164 
L 695.318127 151.013772 
L 695.928074 189.28486 
L 696.538021 156.073734 
L 697.147969 90.713764 
L 697.757916 248.035313 
L 698.367863 83.091618 
L 698.97781 269.881323 
L 699.587757 256.7574 
L 700.197704 126.999068 
L 700.807652 222.039749 
L 701.417599 218.678562 
L 702.027546 228.038401 
L 702.637493 267.935785 
L 703.857388 250.74392 
L 704.467335 226.2595 
L 705.077282 242.362869 
L 705.687229 245.264544 
L 706.297176 286.410381 
L 706.907123 263.184627 
L 707.517071 267.201017 
L 708.127018 285.729483 
L 709.346912 237.86543 
L 709.956859 203.370265 
L 710.566806 224.646987 
L 711.176754 258.483338 
L 711.786701 250.205069 
L 712.396648 249.07419 
L 713.006595 281.183432 
L 713.616542 230.009406 
L 714.226489 242.391093 
L 714.836437 241.967469 
L 715.446384 233.316251 
L 716.056331 226.863243 
L 716.666278 229.178581 
L 717.276225 246.006429 
L 717.886172 282.371558 
L 718.49612 185.341606 
L 719.106067 283.689149 
L 719.716014 197.900588 
L 720.325961 245.863378 
L 720.935908 159.755525 
L 721.545855 227.174415 
L 722.155803 234.842594 
L 722.76575 230.702731 
L 723.375697 254.348041 
L 723.985644 216.165083 
L 724.595591 220.98949 
L 725.205538 222.414339 
L 725.815486 282.730344 
L 726.425433 231.223794 
L 727.03538 246.897928 
L 727.645327 310.372921 
L 728.255274 241.764174 
L 728.865221 209.794134 
L 729.475169 257.334223 
L 730.085116 259.948171 
L 730.695063 367.570159 
L 731.30501 258.238973 
L 731.914957 292.767404 
L 732.524904 248.016044 
L 733.134852 228.289189 
L 733.744799 185.748192 
L 734.354746 205.166601 
L 734.964693 229.65393 
L 735.57464 283.780155 
L 736.184587 267.98385 
L 736.794535 255.710238 
L 737.404482 254.968511 
L 738.014429 220.847856 
L 738.624376 200.7058 
L 739.234323 257.728344 
L 739.84427 252.322307 
L 740.454218 210.284706 
L 741.064165 242.712285 
L 741.674112 268.940742 
L 742.284059 232.218003 
L 742.894006 232.651748 
L 744.113901 300.56838 
L 744.723848 253.484395 
L 745.333795 286.670883 
L 745.943742 190.102143 
L 746.553689 251.64682 
L 747.163636 244.661087 
L 747.163636 244.661087 
" clip-path="url(#p8dc31d63c6)" style="fill: none; stroke: #1f77b4; stroke-width: 1.5; stroke-linecap: square"/>
   </g>
   <g id="line2d_15">
    <path d="M 138.436364 201.923428 
L 139.046311 232.155878 
L 139.656258 232.688617 
L 140.266205 214.884049 
L 140.876152 265.717334 
L 141.486099 241.543959 
L 142.096047 282.495166 
L 142.705994 201.58662 
L 143.315941 248.335382 
L 143.925888 173.045828 
L 145.145782 279.877628 
L 145.75573 220.356966 
L 146.365677 260.161093 
L 146.975624 226.613097 
L 147.585571 256.157153 
L 148.195518 267.016889 
L 148.805465 262.722655 
L 149.415413 188.383902 
L 150.02536 226.637894 
L 150.635307 236.628 
L 151.245254 187.862776 
L 151.855201 223.29552 
L 152.465148 219.081685 
L 153.075096 210.445872 
L 153.685043 254.497719 
L 154.29499 198.513477 
L 154.904937 222.459887 
L 155.514884 236.038067 
L 156.124831 264.395822 
L 156.734779 226.096384 
L 157.344726 241.669186 
L 157.954673 196.617277 
L 158.56462 233.465161 
L 159.174567 246.210762 
L 159.784514 231.221135 
L 160.394462 212.589071 
L 161.004409 217.677874 
L 161.614356 221.711855 
L 162.224303 266.509514 
L 162.83425 239.830659 
L 163.444197 232.546747 
L 164.054145 212.723165 
L 164.664092 200.74294 
L 165.274039 231.415089 
L 165.883986 271.429717 
L 166.493933 250.253792 
L 167.10388 204.207509 
L 167.713828 216.182085 
L 168.323775 188.681629 
L 168.933722 196.303697 
L 170.153616 256.367988 
L 170.763563 170.401033 
L 171.373511 264.582167 
L 171.983458 208.824388 
L 172.593405 229.611888 
L 173.203352 214.823959 
L 173.813299 257.663541 
L 174.423246 242.364225 
L 175.033194 114.267748 
L 175.643141 169.037657 
L 176.253088 173.497637 
L 176.863035 200.839391 
L 177.472982 203.674772 
L 178.082929 209.377273 
L 178.692877 293.206752 
L 179.302824 236.97039 
L 179.912771 198.476826 
L 181.132665 241.020843 
L 181.742612 191.301543 
L 182.35256 240.341638 
L 182.962507 208.934278 
L 183.572454 272.440935 
L 184.182401 232.634493 
L 184.792348 213.849817 
L 185.402296 268.61022 
L 186.012243 230.608341 
L 186.62219 151.28149 
L 187.232137 160.375145 
L 187.842084 159.691849 
L 188.452031 251.663995 
L 189.061979 268.384073 
L 189.671926 191.767705 
L 190.281873 216.351714 
L 190.89182 163.078913 
L 191.501767 189.648714 
L 192.111714 151.275846 
L 192.721662 206.902102 
L 193.331609 145.498762 
L 193.941556 201.358353 
L 194.551503 146.008303 
L 195.16145 186.672389 
L 195.771397 187.518482 
L 196.381345 235.017595 
L 196.991292 255.238357 
L 197.601239 181.636829 
L 198.211186 235.482549 
L 198.821133 193.284029 
L 199.43108 238.947621 
L 200.041028 190.08463 
L 200.650975 261.944671 
L 201.260922 246.880275 
L 201.870869 218.174612 
L 202.480816 256.521102 
L 203.090763 249.826128 
L 203.700711 237.896062 
L 204.310658 253.186236 
L 204.920605 297.087249 
L 205.530552 185.466773 
L 206.140499 228.291101 
L 206.750446 252.872041 
L 207.360394 206.307344 
L 207.970341 223.793021 
L 208.580288 190.620364 
L 209.190235 283.404975 
L 209.800182 223.145492 
L 210.410129 247.161554 
L 211.020077 245.557221 
L 211.630024 239.41117 
L 212.239971 162.063544 
L 212.849918 199.483391 
L 213.459865 307.465783 
L 214.069812 230.960968 
L 215.289707 239.479809 
L 215.899654 228.049106 
L 216.509601 219.465861 
L 217.119548 208.544112 
L 217.729495 192.385897 
L 218.339443 327.244478 
L 218.94939 249.541367 
L 219.559337 267.778363 
L 220.169284 255.700512 
L 220.779231 232.824594 
L 221.389178 263.430891 
L 221.999126 195.579097 
L 222.609073 252.549471 
L 223.21902 215.907839 
L 223.828967 227.90813 
L 224.438914 224.065501 
L 225.048861 218.309458 
L 225.658809 272.204515 
L 226.268756 291.914584 
L 226.878703 202.401632 
L 227.48865 191.489286 
L 228.098597 254.075933 
L 228.708544 217.666601 
L 229.318492 221.334258 
L 229.928439 230.168374 
L 230.538386 289.643429 
L 231.148333 250.73064 
L 231.75828 252.694423 
L 232.368227 160.481653 
L 232.978175 204.214926 
L 233.588122 239.902645 
L 234.198069 218.177504 
L 234.808016 177.827666 
L 235.417963 211.444002 
L 236.02791 307.93238 
L 236.637858 263.217053 
L 237.247805 260.895569 
L 237.857752 287.683802 
L 238.467699 266.296518 
L 239.077646 284.833865 
L 239.687593 211.640492 
L 240.297541 266.815286 
L 240.907488 201.574544 
L 241.517435 266.246066 
L 242.127382 207.159926 
L 243.347276 255.658365 
L 243.957224 211.416827 
L 244.567171 215.689806 
L 245.177118 266.069218 
L 245.787065 207.047488 
L 246.397012 246.808991 
L 247.006959 204.955492 
L 247.616907 211.874889 
L 248.226854 240.427739 
L 248.836801 232.611058 
L 249.446748 222.967969 
L 250.056695 277.278695 
L 250.666642 240.942196 
L 251.27659 249.469989 
L 251.886537 189.512389 
L 252.496484 266.176054 
L 253.106431 258.209814 
L 253.716378 248.39287 
L 254.326325 217.574523 
L 254.936273 236.588112 
L 255.54622 226.022014 
L 256.156167 249.152405 
L 256.766114 217.988411 
L 257.376061 273.678095 
L 257.986008 236.159237 
L 258.595956 237.564194 
L 259.205903 228.514354 
L 259.81585 237.284005 
L 260.425797 251.37452 
L 261.035744 204.953317 
L 261.645691 220.688163 
L 262.255639 275.627693 
L 262.865586 221.913942 
L 263.475533 274.98121 
L 264.08548 183.490175 
L 264.695427 263.238003 
L 265.305374 279.353515 
L 265.915322 212.554743 
L 267.135216 274.251868 
L 267.745163 289.191371 
L 268.35511 265.393736 
L 268.965057 201.807854 
L 269.575005 211.419639 
L 270.184952 264.088452 
L 270.794899 261.295472 
L 271.404846 224.95119 
L 272.014793 236.317165 
L 272.62474 184.918907 
L 273.234688 257.905997 
L 273.844635 226.613783 
L 274.454582 221.259971 
L 275.064529 166.17113 
L 275.674476 266.265795 
L 276.284423 189.146137 
L 276.894371 305.204745 
L 277.504318 204.194925 
L 278.114265 256.664409 
L 278.724212 276.978693 
L 279.334159 224.972355 
L 279.944106 208.480007 
L 280.554054 211.839268 
L 281.164001 226.052297 
L 281.773948 216.604039 
L 282.383895 246.138523 
L 282.993842 235.512571 
L 283.603789 287.164999 
L 284.213737 254.662181 
L 284.823684 183.596345 
L 285.433631 277.416175 
L 286.043578 189.12797 
L 286.653525 135.686038 
L 287.263472 263.713722 
L 287.87342 146.500501 
L 288.483367 183.01061 
L 289.093314 209.848672 
L 289.703261 215.646759 
L 290.313208 313.263335 
L 290.923155 203.977891 
L 292.14305 297.605037 
L 292.752997 267.386123 
L 293.362944 283.018089 
L 294.582838 243.075501 
L 295.192786 209.160741 
L 295.802733 243.322753 
L 296.41268 290.813213 
L 297.022627 136.52347 
L 297.632574 239.298388 
L 298.242521 216.673673 
L 298.852469 261.700011 
L 299.462416 258.794156 
L 300.072363 227.231123 
L 300.68231 179.055201 
L 301.292257 228.615058 
L 301.902204 192.145339 
L 302.512152 239.201943 
L 303.122099 261.69843 
L 303.732046 204.452202 
L 304.341993 300.542383 
L 305.561887 198.895847 
L 306.171835 191.430465 
L 306.781782 208.67746 
L 307.391729 232.369841 
L 308.001676 238.77517 
L 308.611623 292.903169 
L 309.22157 230.917335 
L 309.831518 202.133388 
L 310.441465 221.440672 
L 311.051412 199.250503 
L 311.661359 288.574162 
L 312.271306 257.774641 
L 312.881253 254.178858 
L 313.491201 183.285775 
L 314.101148 218.012972 
L 314.711095 302.575242 
L 315.321042 283.289529 
L 315.930989 259.32298 
L 316.540936 268.147428 
L 317.150884 230.263336 
L 317.760831 273.981069 
L 318.370778 159.438562 
L 318.980725 209.129241 
L 319.590672 214.288236 
L 320.200619 318.077709 
L 320.810567 215.956328 
L 321.420514 168.881704 
L 322.030461 233.513121 
L 322.640408 195.208998 
L 323.250355 178.436255 
L 323.860302 197.526791 
L 324.47025 251.148288 
L 325.080197 201.704125 
L 325.690144 272.380083 
L 326.300091 236.911298 
L 326.910038 170.267392 
L 327.519985 242.70776 
L 328.129933 198.223691 
L 328.73988 265.789155 
L 329.349827 269.422294 
L 329.959774 247.342912 
L 330.569721 210.242691 
L 331.179668 251.806647 
L 331.789616 255.956489 
L 333.00951 191.742236 
L 333.619457 190.400207 
L 334.229404 229.719064 
L 334.839351 208.913409 
L 335.449299 250.071754 
L 336.669193 304.45967 
L 337.27914 276.555243 
L 337.889087 174.563588 
L 338.499034 256.270787 
L 339.108982 254.044085 
L 339.718929 268.615791 
L 340.328876 286.560938 
L 340.938823 226.927227 
L 341.54877 215.81252 
L 342.158717 195.949073 
L 342.768665 199.022363 
L 343.378612 195.909342 
L 344.598506 267.495557 
L 345.208453 268.20147 
L 345.8184 302.15698 
L 346.428348 238.816117 
L 347.648242 209.77677 
L 348.258189 182.364177 
L 348.868136 182.62392 
L 349.478083 287.881965 
L 350.088031 278.935248 
L 350.697978 205.119494 
L 351.307925 258.571927 
L 351.917872 195.064861 
L 353.137766 281.829424 
L 353.747714 233.600665 
L 354.357661 251.554313 
L 354.967608 192.983536 
L 355.577555 222.626357 
L 356.187502 235.712979 
L 356.797449 217.073101 
L 357.407397 248.171757 
L 358.017344 231.001554 
L 358.627291 234.268049 
L 359.237238 240.485818 
L 359.847185 256.894036 
L 360.457132 291.912642 
L 361.06708 255.98465 
L 361.677027 237.809063 
L 362.286974 237.713453 
L 362.896921 218.415836 
L 363.506868 227.839081 
L 364.116815 208.918031 
L 364.726763 210.385803 
L 365.33671 248.340032 
L 365.946657 230.359201 
L 366.556604 237.810239 
L 367.166551 243.878847 
L 367.776498 266.264874 
L 368.386446 200.95104 
L 368.996393 222.604463 
L 369.60634 212.621027 
L 370.216287 191.570567 
L 370.826234 154.911354 
L 371.436181 253.466488 
L 372.046129 183.898533 
L 372.656076 228.06644 
L 373.266023 215.638575 
L 373.87597 229.289331 
L 375.095864 240.992127 
L 375.705812 181.546641 
L 376.315759 285.560495 
L 376.925706 131.841115 
L 377.535653 196.803886 
L 378.1456 202.703607 
L 378.755547 273.155873 
L 379.365495 177.527677 
L 379.975442 193.611648 
L 380.585389 228.23199 
L 381.195336 178.37909 
L 382.41523 268.592907 
L 383.025178 190.901399 
L 383.635125 140.380205 
L 384.245072 232.815777 
L 384.855019 170.348314 
L 385.464966 236.200859 
L 386.074913 244.744465 
L 386.684861 201.011432 
L 387.294808 197.514382 
L 387.904755 206.878909 
L 388.514702 261.086205 
L 389.124649 254.005499 
L 389.734596 234.710763 
L 390.344544 254.572585 
L 390.954491 253.230073 
L 391.564438 348.9836 
L 392.174385 250.782611 
L 392.784332 208.517793 
L 393.394279 235.792161 
L 394.004227 206.370231 
L 394.614174 231.564077 
L 395.224121 202.080753 
L 395.834068 195.688437 
L 396.444015 271.900573 
L 397.053962 217.974463 
L 397.66391 271.168764 
L 398.273857 254.625911 
L 398.883804 278.662428 
L 399.493751 164.358982 
L 400.713645 317.764492 
L 401.323593 192.739488 
L 401.93354 243.780346 
L 402.543487 234.643718 
L 403.153434 293.77657 
L 403.763381 215.799943 
L 404.373328 185.33964 
L 404.983276 215.387783 
L 405.593223 230.817394 
L 406.20317 274.918305 
L 406.813117 236.177379 
L 407.423064 232.594813 
L 408.033011 268.105296 
L 408.642959 228.722673 
L 409.252906 211.905435 
L 409.862853 265.704303 
L 410.4728 208.573085 
L 411.082747 220.396403 
L 411.692694 220.96396 
L 412.302642 216.234363 
L 412.912589 277.154035 
L 413.522536 221.713942 
L 414.132483 235.801564 
L 414.74243 244.898206 
L 415.352377 262.667943 
L 415.962325 254.577522 
L 416.572272 188.041203 
L 417.182219 197.096055 
L 417.792166 260.69418 
L 418.402113 302.408391 
L 419.01206 172.723126 
L 419.622008 223.008676 
L 420.231955 233.451833 
L 420.841902 159.634579 
L 421.451849 240.118917 
L 422.061796 223.122103 
L 422.671743 294.969836 
L 423.281691 229.328975 
L 423.891638 271.471722 
L 424.501585 201.652873 
L 425.111532 196.791803 
L 425.721479 237.802805 
L 426.331426 209.545149 
L 426.941374 266.937523 
L 427.551321 215.905349 
L 428.161268 241.021718 
L 428.771215 279.418183 
L 429.381162 201.126531 
L 429.991109 253.241511 
L 430.601057 234.277034 
L 431.211004 272.330009 
L 431.820951 269.069596 
L 432.430898 243.186141 
L 433.040845 264.556344 
L 433.650792 278.73664 
L 434.870687 232.618097 
L 435.480634 129.729614 
L 436.090581 285.289995 
L 436.700528 194.216321 
L 437.310475 225.196571 
L 437.920423 265.533656 
L 438.53037 206.84952 
L 439.140317 220.652213 
L 439.750264 218.387224 
L 440.360211 174.05385 
L 440.970158 229.719369 
L 441.580106 225.276779 
L 442.190053 235.434681 
L 442.8 235.415389 
L 443.409947 238.751359 
L 444.019894 226.676735 
L 445.239789 285.89988 
L 445.849736 163.481229 
L 446.459683 131.481732 
L 447.06963 235.230395 
L 447.679577 191.49082 
L 448.289525 184.925522 
L 448.899472 283.870276 
L 449.509419 268.477883 
L 450.119366 262.498999 
L 450.729313 183.181821 
L 451.33926 233.425364 
L 451.949208 217.790253 
L 452.559155 205.019283 
L 453.169102 264.767475 
L 454.388996 185.566823 
L 454.998943 224.411111 
L 455.608891 213.141097 
L 456.218838 244.200162 
L 456.828785 254.411022 
L 457.438732 291.996507 
L 458.048679 184.15915 
L 458.658626 223.121326 
L 459.268574 205.664843 
L 460.488468 288.46316 
L 461.098415 291.771337 
L 461.708362 245.79734 
L 462.318309 212.817229 
L 462.928257 211.527914 
L 463.538204 219.940166 
L 464.148151 341.059366 
L 464.758098 249.955262 
L 465.368045 244.320496 
L 465.977992 249.919645 
L 466.58794 207.578358 
L 467.197887 234.026032 
L 467.807834 190.812029 
L 468.417781 220.581015 
L 469.027728 292.063481 
L 469.637675 226.819553 
L 470.247623 251.729953 
L 470.85757 231.859578 
L 471.467517 265.531317 
L 472.077464 249.037287 
L 472.687411 268.203057 
L 473.297358 217.388363 
L 473.907306 270.411433 
L 474.517253 284.365657 
L 475.1272 268.899984 
L 475.737147 225.581521 
L 476.347094 233.862244 
L 476.957041 253.806914 
L 477.566989 212.364352 
L 478.176936 212.574899 
L 478.786883 221.082487 
L 479.39683 219.132516 
L 480.006777 186.742439 
L 481.226672 258.766924 
L 481.836619 234.408241 
L 482.446566 232.036574 
L 483.056513 275.197115 
L 483.66646 258.371283 
L 484.276407 227.431084 
L 484.886355 265.506196 
L 485.496302 176.203729 
L 486.106249 224.703227 
L 486.716196 187.864886 
L 487.326143 246.285501 
L 487.93609 163.07828 
L 488.546038 240.658018 
L 489.155985 275.6909 
L 489.765932 232.111374 
L 490.375879 262.187798 
L 490.985826 223.142593 
L 491.595773 210.273137 
L 492.205721 203.485975 
L 492.815668 258.497659 
L 493.425615 228.502146 
L 494.035562 176.16581 
L 494.645509 251.085129 
L 495.255456 135.089822 
L 495.865404 211.778564 
L 496.475351 250.725167 
L 497.085298 192.710349 
L 497.695245 253.019978 
L 498.305192 244.822459 
L 498.915139 199.44479 
L 499.525087 260.187152 
L 500.135034 265.569802 
L 500.744981 193.575581 
L 501.354928 260.344419 
L 501.964875 201.293206 
L 502.574822 308.821035 
L 503.18477 241.702725 
L 503.794717 209.246356 
L 504.404664 213.71867 
L 505.014611 254.247456 
L 505.624558 238.80851 
L 506.234505 236.720225 
L 506.844453 189.456251 
L 507.4544 231.918252 
L 508.064347 241.442341 
L 508.674294 274.27843 
L 509.284241 188.123796 
L 509.894188 273.256695 
L 510.504136 218.547489 
L 511.114083 282.271 
L 511.72403 287.523148 
L 512.333977 222.837416 
L 512.943924 193.672478 
L 513.553871 171.901751 
L 514.163819 178.073534 
L 514.773766 228.935912 
L 515.383713 255.657477 
L 515.99366 185.506883 
L 516.603607 266.271563 
L 517.213554 175.390733 
L 517.823502 225.812016 
L 518.433449 212.569794 
L 519.043396 236.240168 
L 519.653343 227.976712 
L 520.26329 212.746588 
L 520.873237 267.599239 
L 521.483185 178.78932 
L 522.093132 267.671474 
L 522.703079 215.286375 
L 523.313026 288.293556 
L 523.922973 143.022154 
L 524.53292 217.436292 
L 525.142868 235.675931 
L 525.752815 246.925854 
L 526.362762 267.1757 
L 526.972709 280.264119 
L 527.582656 207.83126 
L 528.192603 242.106487 
L 528.802551 221.360757 
L 529.412498 220.910035 
L 530.632392 255.230451 
L 531.242339 267.749516 
L 531.852286 237.814433 
L 532.462234 255.6061 
L 533.072181 223.989073 
L 533.682128 224.602918 
L 534.292075 217.454641 
L 534.902022 196.525172 
L 535.511969 264.396265 
L 536.121917 224.763923 
L 536.731864 151.55469 
L 537.341811 192.716734 
L 537.951758 268.661407 
L 538.561705 251.218939 
L 539.171652 262.230404 
L 539.7816 220.569762 
L 540.391547 162.420832 
L 541.001494 231.526621 
L 541.611441 154.87594 
L 542.221388 271.200508 
L 542.831335 159.076655 
L 543.441283 211.477824 
L 544.05123 251.57426 
L 544.661177 209.77577 
L 545.271124 269.572814 
L 545.881071 292.836745 
L 546.491018 208.132668 
L 547.100966 194.35071 
L 547.710913 197.773711 
L 548.32086 168.941571 
L 548.930807 204.013256 
L 549.540754 261.012234 
L 550.150701 143.701946 
L 550.760649 240.34244 
L 551.370596 213.102886 
L 551.980543 200.026759 
L 552.59049 238.723443 
L 553.200437 195.708163 
L 553.810384 240.283419 
L 554.420332 187.68767 
L 555.030279 228.720958 
L 555.640226 156.009783 
L 556.250173 215.942331 
L 556.86012 230.332051 
L 557.470067 234.358975 
L 558.080015 233.47489 
L 558.689962 173.37015 
L 559.299909 228.176822 
L 559.909856 110.55322 
L 560.519803 189.468516 
L 561.12975 222.7124 
L 561.739698 169.025271 
L 562.349645 239.670108 
L 562.959592 198.272947 
L 563.569539 247.055626 
L 564.179486 238.713857 
L 564.789433 301.357524 
L 565.399381 218.817752 
L 566.009328 267.087183 
L 566.619275 295.563007 
L 567.229222 182.942213 
L 567.839169 111.906168 
L 568.449116 217.138463 
L 569.059064 137.225915 
L 569.669011 269.610679 
L 570.278958 209.306439 
L 570.888905 220.086754 
L 571.498852 200.168206 
L 572.108799 316.074403 
L 572.718747 206.923311 
L 573.328694 212.827101 
L 573.938641 283.449981 
L 574.548588 235.495392 
L 575.158535 248.454917 
L 575.768482 251.941676 
L 576.37843 202.332597 
L 576.988377 206.709728 
L 577.598324 187.594471 
L 578.208271 241.954019 
L 578.818218 237.149601 
L 579.428165 218.096964 
L 580.038113 229.144903 
L 580.64806 225.498504 
L 581.258007 212.424047 
L 581.867954 162.167117 
L 582.477901 154.755555 
L 583.087848 235.670381 
L 583.697796 205.926165 
L 584.307743 153.382652 
L 584.91769 206.275455 
L 585.527637 216.896065 
L 586.137584 200.487742 
L 586.747531 171.228835 
L 587.357479 241.78296 
L 587.967426 186.216279 
L 588.577373 209.3744 
L 589.797267 205.470746 
L 590.407214 192.638199 
L 591.017162 203.374457 
L 591.627109 235.002843 
L 592.237056 232.478308 
L 592.847003 207.171447 
L 593.45695 230.675648 
L 594.066897 182.634152 
L 594.676845 257.366831 
L 595.286792 290.118045 
L 595.896739 183.474284 
L 596.506686 189.814079 
L 597.116633 205.544177 
L 597.72658 232.890246 
L 598.336528 200.016067 
L 598.946475 229.713291 
L 599.556422 205.491844 
L 600.166369 105.014941 
L 601.386263 212.335331 
L 601.996211 233.121834 
L 602.606158 270.829071 
L 603.216105 214.271909 
L 603.826052 220.884505 
L 604.435999 162.179971 
L 605.045946 216.514777 
L 605.655894 157.360077 
L 606.265841 289.839855 
L 606.875788 172.71518 
L 607.485735 267.626614 
L 608.095682 240.27673 
L 608.705629 239.111355 
L 609.315577 189.081285 
L 609.925524 217.402467 
L 610.535471 216.180602 
L 611.145418 154.612107 
L 611.755365 261.10116 
L 612.365312 222.240598 
L 612.97526 215.583942 
L 613.585207 182.943438 
L 614.195154 144.231222 
L 614.805101 155.075299 
L 615.415048 262.116296 
L 616.024995 242.294056 
L 616.634943 206.858976 
L 617.24489 252.159571 
L 617.854837 201.464147 
L 618.464784 242.369129 
L 619.074731 198.699186 
L 619.684678 185.950424 
L 620.904573 257.507571 
L 621.51452 199.155031 
L 622.124467 261.225751 
L 622.734414 191.454017 
L 623.344361 166.232882 
L 623.954309 294.224057 
L 624.564256 223.466327 
L 625.174203 195.386617 
L 625.78415 239.522529 
L 626.394097 146.073768 
L 627.004044 244.937613 
L 627.613992 188.904316 
L 628.223939 206.20268 
L 628.833886 208.965829 
L 629.443833 209.238764 
L 630.05378 110.379681 
L 630.663727 226.418642 
L 631.273675 162.982977 
L 631.883622 260.749394 
L 632.493569 191.784713 
L 633.103516 222.449385 
L 633.713463 265.709298 
L 634.32341 226.238144 
L 634.933358 199.095127 
L 635.543305 272.254137 
L 636.153252 253.304111 
L 636.763199 230.271796 
L 637.373146 213.304618 
L 637.983093 208.043966 
L 638.593041 246.359098 
L 639.202988 254.733562 
L 639.812935 316.912926 
L 640.422882 274.854173 
L 641.032829 224.366583 
L 641.642776 228.076525 
L 642.252724 143.566065 
L 642.862671 252.994643 
L 643.472618 206.994771 
L 644.692512 266.522825 
L 645.302459 238.625097 
L 645.912407 189.837632 
L 646.522354 226.041614 
L 647.132301 240.084499 
L 647.742248 263.287412 
L 648.352195 274.249895 
L 648.962142 255.072197 
L 649.57209 328.073276 
L 650.182037 252.682909 
L 650.791984 239.362841 
L 651.401931 245.850641 
L 652.011878 234.335651 
L 652.621825 243.560028 
L 653.231773 210.120152 
L 653.84172 195.874018 
L 654.451667 203.978552 
L 655.061614 237.171739 
L 655.671561 283.749671 
L 656.281508 296.177454 
L 656.891456 261.504126 
L 657.501403 259.180725 
L 658.11135 122.830225 
L 658.721297 207.036549 
L 659.331244 216.568081 
L 659.941191 209.391995 
L 660.551139 185.729444 
L 661.161086 172.063372 
L 661.771033 224.250363 
L 662.38098 265.083646 
L 662.990927 204.241601 
L 663.600874 208.233495 
L 664.210822 247.296679 
L 664.820769 271.343181 
L 665.430716 211.898643 
L 666.040663 201.116113 
L 666.65061 184.626969 
L 667.260557 179.456817 
L 667.870505 232.515025 
L 668.480452 252.245125 
L 669.090399 250.412321 
L 669.700346 285.523885 
L 670.310293 202.135302 
L 670.92024 310.680613 
L 671.530188 143.712045 
L 672.140135 199.450186 
L 672.750082 284.754689 
L 673.360029 246.939855 
L 673.969976 162.363543 
L 674.579923 170.847981 
L 675.189871 215.089107 
L 675.799818 281.373935 
L 676.409765 248.603996 
L 677.019712 161.927482 
L 677.629659 255.513193 
L 678.239606 196.480312 
L 678.849554 230.544784 
L 680.069448 199.997308 
L 680.679395 207.835319 
L 681.289342 193.123629 
L 681.899289 216.527734 
L 682.509237 223.67924 
L 683.119184 202.967215 
L 683.729131 171.080855 
L 684.339078 319.110738 
L 684.949025 221.185155 
L 685.558972 253.867323 
L 686.16892 220.149782 
L 686.778867 265.885569 
L 687.388814 167.403974 
L 687.998761 164.802922 
L 688.608708 201.047624 
L 689.218655 261.968108 
L 689.828603 224.336545 
L 690.43855 219.093424 
L 691.048497 248.634697 
L 691.658444 209.767477 
L 692.268391 141.001976 
L 692.878338 326.297341 
L 693.488286 222.645058 
L 694.098233 226.2182 
L 694.70818 186.664609 
L 695.318127 176.07597 
L 695.928074 198.06021 
L 696.538021 197.45235 
L 697.147969 133.988776 
L 697.757916 255.307669 
L 698.367863 144.064547 
L 698.97781 262.549573 
L 699.587757 248.508726 
L 700.197704 164.845796 
L 700.807652 226.489746 
L 701.417599 219.696538 
L 702.027546 207.202016 
L 702.637493 272.360612 
L 703.857388 234.879168 
L 704.467335 220.543732 
L 705.077282 238.651452 
L 705.687229 232.807167 
L 706.297176 275.121006 
L 706.907123 264.519367 
L 707.517071 261.797494 
L 708.127018 318.26621 
L 708.736965 267.189228 
L 709.346912 244.571317 
L 709.956859 201.960724 
L 710.566806 210.189853 
L 711.176754 253.63583 
L 711.786701 278.978636 
L 712.396648 255.629546 
L 713.006595 280.081602 
L 713.616542 217.313082 
L 714.226489 247.388187 
L 715.446384 228.121333 
L 716.056331 236.084523 
L 716.666278 232.496438 
L 717.886172 281.552233 
L 718.49612 190.941247 
L 719.106067 285.015128 
L 719.716014 181.797774 
L 720.325961 243.248807 
L 720.935908 169.351724 
L 721.545855 213.478884 
L 722.155803 238.135533 
L 722.76575 227.070625 
L 723.375697 269.197425 
L 723.985644 223.117791 
L 724.595591 213.453767 
L 725.205538 213.573221 
L 725.815486 263.048069 
L 726.425433 240.157823 
L 727.03538 245.949145 
L 727.645327 313.465278 
L 728.865221 192.642823 
L 729.475169 262.271271 
L 730.085116 260.33048 
L 730.695063 369.36 
L 731.30501 239.297819 
L 731.914957 301.256223 
L 732.524904 258.55679 
L 733.134852 223.882344 
L 733.744799 181.960358 
L 734.964693 228.98672 
L 735.57464 270.69705 
L 736.184587 260.694502 
L 736.794535 242.984017 
L 737.404482 260.963817 
L 738.624376 199.575447 
L 739.234323 261.644969 
L 739.84427 263.165542 
L 740.454218 193.973165 
L 741.064165 246.664884 
L 741.674112 262.675796 
L 742.284059 237.82373 
L 742.894006 231.480622 
L 743.503953 247.142931 
L 744.113901 297.427975 
L 744.723848 248.614468 
L 745.333795 288.333693 
L 745.943742 184.901374 
L 746.553689 236.310472 
L 747.163636 238.446049 
L 747.163636 238.446049 
" clip-path="url(#p8dc31d63c6)" style="fill: none; stroke-dasharray: 6,2.25; stroke-dashoffset: 0; stroke: #ff7f0e; stroke-width: 1.5"/>
   </g>
   <g id="line2d_16"/>
   <g id="line2d_17"/>
   <g id="patch_3">
    <path d="M 108 384.48 
L 108 51.84 
" style="fill: none; stroke: #000000; stroke-width: 0.8; stroke-linejoin: miter; stroke-linecap: square"/>
   </g>
   <g id="patch_4">
    <path d="M 777.6 384.48 
L 777.6 51.84 
" style="fill: none; stroke: #000000; stroke-width: 0.8; stroke-linejoin: miter; stroke-linecap: square"/>
   </g>
   <g id="patch_5">
    <path d="M 108 384.48 
L 777.6 384.48 
" style="fill: none; stroke: #000000; stroke-width: 0.8; stroke-linejoin: miter; stroke-linecap: square"/>
   </g>
   <g id="patch_6">
    <path d="M 108 51.84 
L 777.6 51.84 
" style="fill: none; stroke: #000000; stroke-width: 0.8; stroke-linejoin: miter; stroke-linecap: square"/>
   </g>
   <g id="text_16">
    <!-- wOBA ~ BABIP + OBP + wRAA -->
    <g transform="translate(351.031875 45.84) scale(0.12 -0.12)">
     <defs>
      <path id="DejaVuSans-7e" d="M 4684 2553 
L 4684 1997 
Q 4356 1750 4076 1644 
Q 3797 1538 3494 1538 
Q 3150 1538 2694 1722 
Q 2659 1734 2644 1741 
Q 2622 1750 2575 1766 
Q 2091 1959 1797 1959 
Q 1522 1959 1253 1839 
Q 984 1719 678 1459 
L 678 2016 
Q 1006 2263 1286 2370 
Q 1566 2478 1869 2478 
Q 2213 2478 2672 2291 
Q 2703 2278 2719 2272 
Q 2744 2263 2788 2247 
Q 3272 2053 3566 2053 
Q 3834 2053 4098 2172 
Q 4363 2291 4684 2553 
z
" transform="scale(0.015625)"/>
     </defs>
     <use xlink:href="#DejaVuSans-77"/>
     <use xlink:href="#DejaVuSans-4f" x="81.787109"/>
     <use xlink:href="#DejaVuSans-42" x="160.498047"/>
     <use xlink:href="#DejaVuSans-41" x="229.101562"/>
     <use xlink:href="#DejaVuSans-20" x="297.509766"/>
     <use xlink:href="#DejaVuSans-7e" x="329.296875"/>
     <use xlink:href="#DejaVuSans-20" x="413.085938"/>
     <use xlink:href="#DejaVuSans-42" x="444.873047"/>
     <use xlink:href="#DejaVuSans-41" x="513.476562"/>
     <use xlink:href="#DejaVuSans-42" x="581.884766"/>
     <use xlink:href="#DejaVuSans-49" x="650.488281"/>
     <use xlink:href="#DejaVuSans-50" x="679.980469"/>
     <use xlink:href="#DejaVuSans-20" x="740.283203"/>
     <use xlink:href="#DejaVuSans-2b" x="772.070312"/>
     <use xlink:href="#DejaVuSans-20" x="855.859375"/>
     <use xlink:href="#DejaVuSans-4f" x="887.646484"/>
     <use xlink:href="#DejaVuSans-42" x="966.357422"/>
     <use xlink:href="#DejaVuSans-50" x="1034.960938"/>
     <use xlink:href="#DejaVuSans-20" x="1095.263672"/>
     <use xlink:href="#DejaVuSans-2b" x="1127.050781"/>
     <use xlink:href="#DejaVuSans-20" x="1210.839844"/>
     <use xlink:href="#DejaVuSans-77" x="1242.626953"/>
     <use xlink:href="#DejaVuSans-52" x="1324.414062"/>
     <use xlink:href="#DejaVuSans-41" x="1389.896484"/>
     <use xlink:href="#DejaVuSans-41" x="1461.054688"/>
    </g>
   </g>
   <g id="legend_1">
    <g id="patch_7">
     <path d="M 115 89.19625 
L 193.940625 89.19625 
Q 195.940625 89.19625 195.940625 87.19625 
L 195.940625 58.84 
Q 195.940625 56.84 193.940625 56.84 
L 115 56.84 
Q 113 56.84 113 58.84 
L 113 87.19625 
Q 113 89.19625 115 89.19625 
z
" style="fill: #ffffff; opacity: 0.8; stroke: #cccccc; stroke-linejoin: miter"/>
    </g>
    <g id="line2d_18">
     <path d="M 117 64.938437 
L 127 64.938437 
L 137 64.938437 
" style="fill: none; stroke: #1f77b4; stroke-width: 1.5; stroke-linecap: square"/>
    </g>
    <g id="text_17">
     <!-- Actual -->
     <g transform="translate(145 68.438437) scale(0.1 -0.1)">
      <defs>
       <path id="DejaVuSans-75" d="M 544 1381 
L 544 3500 
L 1119 3500 
L 1119 1403 
Q 1119 906 1312 657 
Q 1506 409 1894 409 
Q 2359 409 2629 706 
Q 2900 1003 2900 1516 
L 2900 3500 
L 3475 3500 
L 3475 0 
L 2900 0 
L 2900 538 
Q 2691 219 2414 64 
Q 2138 -91 1772 -91 
Q 1169 -91 856 284 
Q 544 659 544 1381 
z
M 1991 3584 
L 1991 3584 
z
" transform="scale(0.015625)"/>
       <path id="DejaVuSans-61" d="M 2194 1759 
Q 1497 1759 1228 1600 
Q 959 1441 959 1056 
Q 959 750 1161 570 
Q 1363 391 1709 391 
Q 2188 391 2477 730 
Q 2766 1069 2766 1631 
L 2766 1759 
L 2194 1759 
z
M 3341 1997 
L 3341 0 
L 2766 0 
L 2766 531 
Q 2569 213 2275 61 
Q 1981 -91 1556 -91 
Q 1019 -91 701 211 
Q 384 513 384 1019 
Q 384 1609 779 1909 
Q 1175 2209 1959 2209 
L 2766 2209 
L 2766 2266 
Q 2766 2663 2505 2880 
Q 2244 3097 1772 3097 
Q 1472 3097 1187 3025 
Q 903 2953 641 2809 
L 641 3341 
Q 956 3463 1253 3523 
Q 1550 3584 1831 3584 
Q 2591 3584 2966 3190 
Q 3341 2797 3341 1997 
z
" transform="scale(0.015625)"/>
       <path id="DejaVuSans-6c" d="M 603 4863 
L 1178 4863 
L 1178 0 
L 603 0 
L 603 4863 
z
" transform="scale(0.015625)"/>
      </defs>
      <use xlink:href="#DejaVuSans-41"/>
      <use xlink:href="#DejaVuSans-63" x="66.658203"/>
      <use xlink:href="#DejaVuSans-74" x="121.638672"/>
      <use xlink:href="#DejaVuSans-75" x="160.847656"/>
      <use xlink:href="#DejaVuSans-61" x="224.226562"/>
      <use xlink:href="#DejaVuSans-6c" x="285.505859"/>
     </g>
    </g>
    <g id="line2d_19">
     <path d="M 117 79.616562 
L 127 79.616562 
L 137 79.616562 
" style="fill: none; stroke-dasharray: 6,2.25; stroke-dashoffset: 0; stroke: #ff7f0e; stroke-width: 1.5"/>
    </g>
    <g id="text_18">
     <!-- Predicted -->
     <g transform="translate(145 83.116562) scale(0.1 -0.1)">
      <use xlink:href="#DejaVuSans-50"/>
      <use xlink:href="#DejaVuSans-72" x="58.552734"/>
      <use xlink:href="#DejaVuSans-65" x="97.416016"/>
      <use xlink:href="#DejaVuSans-64" x="158.939453"/>
      <use xlink:href="#DejaVuSans-69" x="222.416016"/>
      <use xlink:href="#DejaVuSans-63" x="250.199219"/>
      <use xlink:href="#DejaVuSans-74" x="305.179688"/>
      <use xlink:href="#DejaVuSans-65" x="344.388672"/>
      <use xlink:href="#DejaVuSans-64" x="405.912109"/>
     </g>
    </g>
   </g>
  </g>
 </g>
 <defs>
  <clipPath id="p8dc31d63c6">
   <rect x="108" y="51.84" width="669.6" height="332.64"/>
  </clipPath>
 </defs>
</svg>
